<svg width="25" height="25" viewBox="0 0 25 25" fill="none" xmlns="http://www.w3.org/2000/svg">
<path d="M22.8419 2.80271C22.5715 2.57136 22.2436 2.41744 21.8929 2.35727C21.5422 2.29709 21.1817 2.33291 20.8497 2.46092L2.82234 9.55076C2.42838 9.70075 2.09459 9.97598 1.87228 10.3341C1.64997 10.6923 1.55145 11.1136 1.59188 11.5332C1.62804 11.9544 1.7999 12.3525 2.08166 12.6677C2.36341 12.9829 2.73983 13.1982 3.15438 13.2812L7.42195 14.1308V19.5312C7.41985 19.9177 7.53301 20.296 7.74697 20.6178C7.96093 20.9396 8.26597 21.1903 8.62313 21.3379C8.86215 21.4342 9.11738 21.4839 9.37508 21.4844C9.63149 21.4854 9.8855 21.435 10.122 21.336C10.3586 21.237 10.5728 21.0916 10.752 20.9082L13.0274 18.6328L16.6016 21.7773C16.9538 22.0915 17.4091 22.2652 17.8809 22.2656C18.0868 22.2674 18.2915 22.2344 18.4864 22.1679C18.8089 22.0662 19.0992 21.882 19.3287 21.6337C19.5582 21.3853 19.7189 21.0814 19.795 20.7519L23.4669 4.71677C23.5463 4.37105 23.5302 4.01021 23.42 3.673C23.3099 3.33578 23.1101 3.03492 22.8419 2.80271ZM14.4434 7.49998L8.32039 11.9238L4.92195 11.2402L14.4434 7.49998ZM9.7657 18.584V15.7617L11.2696 17.0801L9.7657 18.584ZM17.6563 19.5898L10.4688 13.2617L20.8204 5.79099L17.6563 19.5898Z" fill="#00548C"/>
</svg>
