<svg width="21" height="21" viewBox="0 0 21 21" fill="none" xmlns="http://www.w3.org/2000/svg">
<path d="M17.8441 3.11456C16.8891 2.1499 15.7516 1.38505 14.4979 0.864617C13.2442 0.344183 11.8994 0.0785852 10.542 0.083314C4.85449 0.083314 0.219076 4.71873 0.219076 10.4062C0.219076 12.2291 0.698242 14 1.59408 15.5625L0.135742 20.9166L5.60449 19.4791C7.11491 20.3021 8.81282 20.7396 10.542 20.7396C16.2295 20.7396 20.8649 16.1041 20.8649 10.4166C20.8649 7.65623 19.792 5.06248 17.8441 3.11456V3.11456ZM10.542 18.9896C9.00032 18.9896 7.48991 18.5729 6.16699 17.7916L5.85449 17.6041L2.60449 18.4583L3.46908 15.2916L3.26074 14.9687C2.40423 13.601 1.94943 12.02 1.94824 10.4062C1.94824 5.67706 5.80241 1.8229 10.5316 1.8229C12.8232 1.8229 14.9795 2.71873 16.5941 4.34373C17.3935 5.13953 18.0271 6.08609 18.458 7.12855C18.889 8.17101 19.1087 9.28864 19.1045 10.4166C19.1253 15.1458 15.2712 18.9896 10.542 18.9896V18.9896ZM15.2503 12.5729C14.9899 12.4479 13.7191 11.8229 13.4899 11.7291C13.2503 11.6458 13.0837 11.6041 12.9066 11.8541C12.7295 12.1146 12.2399 12.6979 12.0941 12.8646C11.9482 13.0416 11.792 13.0625 11.5316 12.9271C11.2712 12.8021 10.4378 12.5208 9.45866 11.6458C8.68782 10.9583 8.17741 10.1146 8.02116 9.85415C7.87532 9.59373 8.00032 9.45831 8.13574 9.3229C8.25032 9.20831 8.39616 9.02081 8.52116 8.87498C8.64616 8.72915 8.69824 8.61456 8.78158 8.4479C8.86491 8.27081 8.82324 8.12498 8.76074 7.99998C8.69824 7.87498 8.17741 6.60415 7.96907 6.08331C7.76074 5.58331 7.54199 5.64581 7.38574 5.6354H6.88574C6.70866 5.6354 6.43782 5.6979 6.19824 5.95831C5.96907 6.21873 5.30241 6.84373 5.30241 8.11456C5.30241 9.3854 6.22949 10.6146 6.35449 10.7812C6.47949 10.9583 8.17741 13.5625 10.7607 14.6771C11.3753 14.9479 11.8545 15.1041 12.2295 15.2187C12.8441 15.4166 13.4066 15.3854 13.8545 15.3229C14.3545 15.25 15.3857 14.6979 15.5941 14.0937C15.8128 13.4896 15.8128 12.9791 15.7399 12.8646C15.667 12.75 15.5107 12.6979 15.2503 12.5729V12.5729Z" fill="#00548C"/>
</svg>
